<?xml version="1.0" encoding="UTF-8"?>
<!DOCTYPE svg PUBLIC "-//W3C//DTD SVG 1.1//EN" "http://www.w3.org/Graphics/SVG/1.1/DTD/svg11.dtd">
<svg xmlns="http://www.w3.org/2000/svg" version="1.1" width="662px" height="664px" style="shape-rendering:geometricPrecision; text-rendering:geometricPrecision; image-rendering:optimizeQuality; fill-rule:evenodd; clip-rule:evenodd" xmlns:xlink="http://www.w3.org/1999/xlink">
<g><path style="opacity:1" fill="#fefefe" d="M -0.5,0.5 C -0.5,0.166667 -0.5,-0.166667 -0.5,-0.5C 220.167,-0.5 440.833,-0.5 661.5,-0.5C 661.5,-0.166667 661.5,0.166667 661.5,0.5C 640.497,0.333375 619.497,0.500042 598.5,1C 619.034,22.3664 639.701,43.5331 660.5,64.5C 657.906,68.272 655.073,71.9387 652,75.5C 543.96,194.704 436.126,314.037 328.5,433.5C 328.062,433.435 327.728,433.601 327.5,434C 397.373,510.37 467.04,586.87 536.5,663.5C 463.167,663.5 389.833,663.5 316.5,663.5C 247.129,586.798 178.129,509.798 109.5,432.5C 109.709,431.078 110.209,429.745 111,428.5C 218.741,307.304 325.574,185.97 431.5,64.5C 411.488,43.8218 391.822,22.8218 372.5,1.5C 248.168,0.50001 123.835,0.166676 -0.5,0.5 Z"/></g>
<g><path style="opacity:1" fill="#ff0000" d="M -0.5,0.5 C 123.835,0.166676 248.168,0.50001 372.5,1.5C 391.822,22.8218 411.488,43.8218 431.5,64.5C 287.5,64.5 143.5,64.5 -0.5,64.5C -0.5,43.1667 -0.5,21.8333 -0.5,0.5 Z"/></g>
<g><path style="opacity:1" fill="#ff0301" d="M 661.5,0.5 C 661.5,21.8333 661.5,43.1667 661.5,64.5C 661.167,64.5 660.833,64.5 660.5,64.5C 639.701,43.5331 619.034,22.3664 598.5,1C 619.497,0.500042 640.497,0.333375 661.5,0.5 Z"/></g>
<g><path style="opacity:1" fill="#9dc3e6" d="M -0.5,64.5 C 143.5,64.5 287.5,64.5 431.5,64.5C 325.574,185.97 218.741,307.304 111,428.5C 110.209,429.745 109.709,431.078 109.5,432.5C 72.8333,392.167 36.1667,351.833 -0.5,311.5C -0.5,229.167 -0.5,146.833 -0.5,64.5 Z"/></g>
<g><path style="opacity:1" fill="#9dc3e6" d="M 660.5,64.5 C 660.833,64.5 661.167,64.5 661.5,64.5C 661.5,187.5 661.5,310.5 661.5,433.5C 550.5,433.5 439.5,433.5 328.5,433.5C 436.126,314.037 543.96,194.704 652,75.5C 655.073,71.9387 657.906,68.272 660.5,64.5 Z"/></g>
<g><path style="opacity:1" fill="#0016b2" d="M -0.5,311.5 C 36.1667,351.833 72.8333,392.167 109.5,432.5C 178.129,509.798 247.129,586.798 316.5,663.5C 210.833,663.5 105.167,663.5 -0.5,663.5C -0.5,546.167 -0.5,428.833 -0.5,311.5 Z"/></g>
<g><path style="opacity:1" fill="#0016b2" d="M 328.5,433.5 C 439.5,433.5 550.5,433.5 661.5,433.5C 661.5,510.167 661.5,586.833 661.5,663.5C 619.833,663.5 578.167,663.5 536.5,663.5C 467.04,586.87 397.373,510.37 327.5,434C 327.728,433.601 328.062,433.435 328.5,433.5 Z"/></g>
</svg>
